<svg version="1.1" xmlns="http://www.w3.org/2000/svg" viewBox="-265.2 -909.2 4101.4 1413.4"><desc>Created with Snap</desc><defs></defs><g><rect x="-265.2" y="-909.2" width="4101.4" height="1413.4" fill="#f2d398" style=""></rect><g><g transform="matrix(1,0,0,-1,0,0)"><path d="M252 62Q395 62 396 157Q396 196 341 219Q317 229 285 237Q254 245 222 254Q190 263 158 274Q126 286 102 304Q48 345 47 412Q47 484 102 530Q161 580 260 580Q350 580 422 553Q445 545 446 520Q446 508 437 497Q429 486 418 486Q408 486 390 492Q336 511 268 511Q205 511 164 487Q122 462 122 418Q122 372 176 347Q201 336 232 328Q263 321 296 313Q329 305 359 293Q390 282 415 265Q469 226 470 151Q470 81 413 37Q355 -8 260 -8Q156 -8 65 31Q56 35 49 44Q42 54 42 66Q42 78 51 88Q60 99 71 99Q83 99 100 91Q118 83 158 72Q198 62 252 62ZM778 357Q706 357 643 278L643 33Q643 18 632 7Q621 -4 606 -4Q591 -4 580 7Q569 18 569 33L569 384Q569 400 579 411Q590 422 606 422Q621 422 632 411Q643 401 643 384L643 350Q676 384 700 399Q746 426 788 426Q831 426 858 413Q885 401 904 378Q942 333 942 266L942 33Q942 18 931 7Q920 -4 905 -4Q890 -4 879 7Q868 18 868 33L868 258Q868 304 847 330Q826 357 778 357ZM1117 182Q1124 127 1159 94Q1195 62 1257 62Q1320 62 1364 82Q1378 89 1389 89Q1400 90 1409 81Q1419 72 1419 61Q1419 39 1401 30Q1384 21 1370 14Q1356 7 1340 2Q1303 -8 1254 -8Q1153 -8 1097 48Q1042 105 1042 209Q1042 299 1089 359Q1142 426 1238 426Q1330 426 1383 364Q1433 306 1433 219Q1433 204 1422 193Q1412 182 1396 182L1117 182ZM1238 363Q1165 363 1132 298Q1120 275 1117 243L1359 243Q1356 301 1316 335Q1284 363 1238 363ZM1548 397Q1617 427 1691 426Q1774 426 1820 375Q1861 331 1862 265L1862 33Q1862 18 1850 7Q1839 -4 1823 -4Q1808 -4 1797 7Q1786 18 1786 33L1786 54Q1764 31 1727 11Q1690 -8 1633 -8Q1576 -8 1538 25Q1499 59 1499 114Q1499 175 1545 210Q1595 248 1687 247L1786 247L1786 254Q1786 309 1759 332Q1733 355 1677 355Q1630 355 1568 336Q1562 334 1553 334Q1545 334 1536 342Q1527 351 1526 369Q1526 388 1548 397ZM1574 123Q1574 57 1661 58Q1699 58 1732 76Q1766 95 1786 118L1786 187L1698 187Q1640 187 1607 172Q1574 158 1574 123ZM2185 250L2333 54Q2341 44 2341 29Q2341 15 2330 5Q2320 -4 2307 -4Q2287 -4 2273 11L2132 203L2061 138L2061 33Q2061 18 2050 7Q2039 -4 2024 -4Q2009 -4 1998 7Q1987 18 1987 33L1987 565Q1987 580 1997 591Q2008 602 2024 602Q2039 602 2050 591Q2061 580 2061 565L2061 230L2256 410Q2269 420 2285 420Q2302 420 2309 408Q2317 397 2317 388Q2317 370 2303 356L2185 250ZM2437 384Q2437 401 2448 411Q2459 422 2475 422Q2491 422 2501 411Q2511 401 2511 384L2511 33Q2511 18 2501 7Q2491 -4 2475 -4Q2459 -4 2448 7Q2437 18 2437 33L2437 384ZM2519 548L2519 545Q2519 527 2507 515Q2495 503 2477 503L2472 503Q2454 503 2442 515Q2431 527 2431 545L2431 548Q2431 566 2443 578Q2455 590 2472 590L2477 590Q2495 590 2507 578Q2519 566 2519 548ZM2853 357Q2781 357 2718 278L2718 33Q2718 18 2707 7Q2696 -4 2681 -4Q2666 -4 2655 7Q2644 18 2644 33L2644 384Q2644 400 2654 411Q2665 422 2681 422Q2696 422 2707 411Q2718 401 2718 384L2718 350Q2751 384 2775 399Q2821 426 2863 426Q2906 426 2933 413Q2960 401 2979 378Q3017 333 3017 266L3017 33Q3017 18 3006 7Q2995 -4 2980 -4Q2965 -4 2954 7Q2943 18 2943 33L2943 258Q2943 304 2922 330Q2901 357 2853 357ZM3455 364L3455 384Q3455 399 3465 410Q3476 422 3491 422Q3506 422 3517 411Q3529 400 3529 384L3529 18Q3529 -86 3479 -142Q3429 -197 3337 -197Q3239 -197 3161 -154Q3147 -145 3147 -129Q3147 -113 3156 -103Q3166 -92 3176 -92Q3186 -92 3194 -95Q3256 -126 3329 -126Q3455 -126 3455 7L3455 62Q3397 0 3315 0Q3237 0 3181 53Q3116 113 3116 213Q3116 314 3181 374Q3237 427 3317 426Q3397 426 3455 364ZM3455 129L3455 298Q3432 322 3402 340Q3373 358 3337 358Q3301 358 3275 349Q3250 340 3231 322Q3191 284 3191 213Q3191 107 3275 77Q3301 68 3337 68Q3397 68 3455 129Z" fill="#292929" style=""></path></g></g></g></svg>